
<svg viewBox="0 0 80 80" version="1.1" xmlns="http://www.w3.org/2000/svg" xmlns:xlink="http://www.w3.org/1999/xlink">
    <g id="Page-1" stroke="none" stroke-width="1" fill="none" fill-rule="evenodd">
        <g id="logo" transform="translate(2.000000, 0.000000)" fill-rule="nonzero">
            <path d="M46.6084181,3.71924828 C46.38986,5.37868979 44.6814972,6.53630019 42.7104636,6.41634056 C42.6021871,6.41634056 42.4919055,6.40634393 42.3715982,6.38435133 C42.2613166,6.37435469 42.1530401,6.3523621 42.0427584,6.3303695 C40.1158375,5.92650542 38.7683965,4.36503094 38.9869546,2.70558943 C39.1734308,1.30805977 40.422621,0.260412358 41.9986458,0.0404863742 C42.3916494,-0.0134954581 42.7966838,-0.0134954581 43.2257796,0.0404863742 C43.6408396,0.0944682065 44.045874,0.204431198 44.4067957,0.368376022 C45.8645184,0.990166757 46.7948943,2.32171862 46.6084181,3.71924828 L46.6084181,3.71924828 Z" id="Path" fill="#386890"></path>
            <path d="M42.193033,18.6171619 C42.2473065,18.7592964 40.7879538,18.4309856 40.7879538,18.4309856 C40.7879538,18.4309856 39.2843783,18.3649231 39.3828745,18.2448094 C40.6773968,15.2279536 41.3025465,12.417293 41.5678833,10.0670682 C41.9075949,7.0822427 41.6764302,4.82010132 41.5236605,3.77110832 C41.9176455,3.71705716 42.3236913,3.71705716 42.7518485,3.77110832 C43.1699551,3.82515949 43.5760009,3.93526372 43.9378238,4.09941911 C43.5096666,5.07234009 42.6975751,7.19234693 42.2372558,10.1551516 C41.8854835,12.493365 41.7427644,15.3700881 42.193033,18.6171619 L42.193033,18.6171619 Z" id="Path" fill="#386890"></path>
            <path d="M12.9439128,57.5284213 C14.1863206,56.3826738 16.2543153,56.5926595 17.6839904,57.9728571 C17.7605082,58.0503276 17.8491078,58.1298368 17.9256256,58.2175007 C18.0021434,58.3072034 18.0806748,58.396906 18.1451109,58.48457 C19.3653687,60.0543664 19.3875186,62.1583013 18.1350428,63.3060874 C17.0799023,64.2744683 15.4408101,64.2642748 14.0997346,63.4059836 C13.7594317,63.1939591 13.439265,62.9268899 13.15333,62.6047758 C12.867395,62.2826617 12.6358279,61.9360833 12.4606424,61.5813501 C11.7458049,60.144069 11.8988405,58.48457 12.9439128,57.5284213 L12.9439128,57.5284213 Z" id="Path" fill="#386890"></path>
            <path d="M26.0560596,48.9256918 C26.1002545,48.7712245 27.0102676,49.9668415 27.0102676,49.9668415 C27.0102676,49.9668415 28.1191579,50.9738881 27.9644757,51.0079913 C25.023506,52.486464 22.7313978,54.2397681 21.0098056,55.8727081 C18.8141226,57.9429712 17.5324705,59.8166394 16.9719989,60.7253886 C16.6304928,60.5167574 16.3130931,60.2539624 16.0278351,59.9370036 C15.7425771,59.6180386 15.5115583,59.279013 15.3367876,58.929957 C16.2909956,58.4585308 18.2878015,57.3632173 20.5578123,55.3792152 C22.3376614,53.8104694 24.3003168,51.7081093 26.0560596,48.9256918 L26.0560596,48.9256918 Z" id="Path" fill="#386890"></path>
            <path d="M59.2409419,20.85784 C58.4949256,21.3924712 57.3999663,21.1411148 56.7221344,20.3232087 C56.6780151,20.2793211 56.6459284,20.225459 56.6118363,20.1815714 C56.5797496,20.1277093 56.5456574,20.0838216 56.5135707,20.0299595 C55.956064,19.1262731 56.0763892,18.013123 56.8204,17.4804867 C57.4440856,17.0336307 58.3324866,17.1433498 59.0002915,17.6759861 C59.1647359,17.8076491 59.3171478,17.9692354 59.4595327,18.1547604 C59.5918904,18.3402854 59.7001831,18.5357849 59.7663619,18.7432537 C60.0511315,19.5511853 59.8646275,20.4129789 59.2409419,20.85784 L59.2409419,20.85784 Z" id="Path" fill="#6A9BC3"></path>
            <path d="M51.6767776,24.6574166 C51.6449961,24.7335651 51.2318368,24.0342004 51.2318368,24.0342004 C51.2318368,24.0342004 50.6994969,23.4210038 50.786896,23.4109843 C52.4454922,22.7997916 53.7803146,22.0002313 54.8112264,21.222714 C56.112281,20.2488136 56.9147634,19.3189991 57.2723051,18.8601036 C57.4351853,18.9903578 57.5861473,19.1546785 57.7271776,19.3410421 C57.8582763,19.5274058 57.9655388,19.723789 58.0310881,19.9321957 C57.4888165,20.1285789 56.3605738,20.5874744 55.0158198,21.5192928 C53.9650444,22.2607397 52.7931022,23.2687066 51.6767776,24.6574166 L51.6767776,24.6574166 Z" id="Path" fill="#6A9BC3"></path>
            <path d="M35.2337736,65.9442722 C35.2655401,65.0234736 36.1232378,64.2933249 37.1854327,64.2487047 C37.2390388,64.2487047 37.3045574,64.2487047 37.370076,64.2487047 C37.4355945,64.2487047 37.4892006,64.2588456 37.5547192,64.2588456 C38.6069871,64.3703961 39.4090932,65.1674751 39.3773267,66.0862456 C39.3455601,66.8610144 38.7380243,67.5039509 37.9021662,67.7027136 C37.6956834,67.7574748 37.4792736,67.7797849 37.2410242,67.7696439 C37.012702,67.759503 36.7962921,67.7250237 36.5917948,67.6580934 C35.7757908,67.4065978 35.211934,66.7190411 35.2337736,65.9442722 L35.2337736,65.9442722 Z" id="Path" fill="#6A9BC3"></path>
            <path d="M36.8636823,57.643622 C36.8211621,57.5677772 37.6019878,57.6755566 37.6019878,57.6755566 C37.6019878,57.6755566 38.3828135,57.6316465 38.3402933,57.7074913 C37.8223198,59.4080117 37.644508,60.9548466 37.6232479,62.2422124 C37.6019878,63.866888 37.8339162,65.076413 37.9614769,65.6312777 C37.7604722,65.6851674 37.5498039,65.7071225 37.3178755,65.6971429 C37.0975435,65.6871633 36.8849425,65.6532328 36.6839378,65.5893634 C36.8540187,65.0444784 37.1709875,63.8569084 37.2637589,62.2322328 C37.3391356,60.9348874 37.2656916,59.376077 36.8636823,57.643622 L36.8636823,57.643622 Z" id="Path" fill="#6A9BC3"></path>
            <path d="M51.1003445,66.606284 C50.1163036,65.2577079 50.5423213,63.2438077 52.0403835,61.9828792 C52.1283872,61.9071836 52.2163909,61.841448 52.3023944,61.7757124 C52.3903981,61.7099768 52.4884022,61.6462331 52.5864062,61.5904575 C54.2464752,60.5566156 56.3005605,60.7518304 57.2946018,62.1023985 C58.1246363,63.2338478 57.9506291,64.8433743 56.9665882,66.084383 C56.7265782,66.3891572 56.432566,66.6819795 56.0825515,66.9210181 C55.7425374,67.1720086 55.3825224,67.3672235 55.0105069,67.4967027 C53.5244452,68.0644194 51.930379,67.7476932 51.1003445,66.606284 L51.1003445,66.606284 Z" id="Path" fill="#386890"></path>
            <path d="M43.9488789,52.6756973 C43.8063474,52.6090966 45.0891309,51.8381424 45.0891309,51.8381424 C45.0891309,51.8381424 46.217338,50.8472038 46.2293829,51.0005874 C47.3917173,54.0965135 48.8832793,56.5768871 50.3186317,58.4719814 C52.1394215,60.8857543 53.8718818,62.3731712 54.7150259,63.0230332 C54.4741276,63.3318185 54.1790272,63.6284946 53.8277171,63.8726974 C53.4864445,64.124973 53.1250971,64.3247752 52.7537122,64.4559585 C52.3923647,63.4529108 51.5030484,61.335814 49.782633,58.8574585 C48.4115201,56.9179637 46.5264908,54.7261934 43.9488789,52.6756973 L43.9488789,52.6756973 Z" id="Path" fill="#386890"></path>
            <path d="M22.9238358,9.78645012 C23.5190178,10.7335226 23.1619086,12.0602406 22.1441474,12.8623947 C22.090581,12.907299 22.025111,12.9501622 21.959641,12.9950665 C21.894171,13.0399708 21.8287009,13.0726285 21.7751346,13.1073273 C20.6482567,13.7421108 19.3269526,13.5318771 18.7317706,12.59501 C18.2338017,11.8030615 18.4064045,10.721276 19.0888798,9.93136854 C19.2634666,9.73134029 19.4578927,9.55172309 19.6959655,9.39659914 C19.9241186,9.23943409 20.1721111,9.12921444 20.4220875,9.04961136 C21.396202,8.71691131 22.4258669,8.99654264 22.9238358,9.78645012 L22.9238358,9.78645012 Z" id="Path" fill="#386890"></path>
            <path d="M27.1440071,19.0744389 C27.2312418,19.1189561 26.3767382,19.5823393 26.3767382,19.5823393 C26.3767382,19.5823393 25.6074867,20.2015326 25.6074867,20.0902397 C24.9690873,18.0120975 24.0808794,16.3224687 23.2144801,15.0173064 C22.1200811,13.3600538 21.0494734,12.3199709 20.5181347,11.8565877 C20.6926041,11.658284 20.8868996,11.4802153 21.1248124,11.3264287 C21.3528122,11.1706186 21.6026207,11.0613492 21.8504466,10.984456 C22.0566377,11.658284 22.554272,13.0848567 23.583245,14.7744855 C24.3941313,16.1221415 25.5420607,17.6377486 27.1440071,19.0744389 L27.1440071,19.0744389 Z" id="Path" fill="#386890"></path>
            <path d="M5.41453231,31.0885797 C7.09271988,31.0565732 8.50593047,32.5748829 8.6825818,34.5292815 C8.6926188,34.6373035 8.70466321,34.7473259 8.70466321,34.8673504 C8.70466321,34.9773728 8.70466321,35.0973973 8.69462621,35.2054194 C8.58421913,37.1718204 7.23524538,38.724137 5.55906521,38.7561435 C4.14585462,38.778148 2.91732496,37.7079298 2.46766704,36.1896201 C2.35725996,35.8075422 2.29302312,35.4034597 2.28097871,34.9773728 C2.2709417,34.5512859 2.32514154,34.1472035 2.42350421,33.7651256 C2.80691788,32.2348135 3.98927731,31.1085838 5.41453231,31.0885797 L5.41453231,31.0885797 Z" id="Path" fill="#6A9BC3"></path>
            <path d="M20.8304056,33.1634587 C20.9608709,33.0870709 20.8524843,34.5786439 20.8524843,34.5786439 C20.8524843,34.5786439 21.0170714,36.0722272 20.8745631,35.9958394 C17.6952228,35.1716548 14.812942,34.9746546 12.4344583,35.0731547 C9.43174795,35.183716 7.21584409,35.7546146 6.19821433,36.0621762 C6.08782057,35.6782268 6.02359147,35.2721651 6.01154851,34.8439912 C6.00151272,34.4158172 6.05570602,34.0097556 6.15405682,33.6258062 C7.18372954,33.9012044 9.4096692,34.393705 12.4123795,34.393705 C14.812942,34.393705 17.673144,34.0961944 20.8304056,33.1634587 L20.8304056,33.1634587 Z" id="Path" fill="#6A9BC3"></path>
            <path d="M68.8671574,48.7834516 C67.2501694,48.2623889 66.3960264,46.358584 66.8626604,44.420312 C66.8849776,44.3088005 66.9174391,44.1993165 66.9519295,44.0878051 C66.984391,43.9762936 67.0290255,43.8668096 67.0736601,43.767463 C67.8162167,41.9184002 69.609714,40.856 71.2388751,41.3750352 C72.6022577,41.8068887 73.4219103,43.2464004 73.3651027,44.8400006 C73.3549585,45.2394144 73.2758336,45.6489656 73.154103,46.0585168 C73.0201994,46.468068 72.84369,46.8451795 72.6225461,47.1776864 C71.7257975,48.5279889 70.23054,49.2153051 68.8671574,48.7834516 L68.8671574,48.7834516 Z" id="Path" fill="#6A9BC3"></path>
            <path d="M54.9482546,41.6973859 C54.7944948,41.7298601 55.3735901,40.3334704 55.3735901,40.3334704 C55.3735901,40.3334704 55.6890972,38.8599546 55.7989256,38.969555 C58.5366484,40.7881089 61.1865085,41.9064384 63.4549645,42.5944851 C66.3224845,43.4692583 68.5909405,43.6356884 69.6373057,43.6701922 C69.6253244,44.0700306 69.549443,44.4800171 69.4296302,44.8900035 C69.2998329,45.29999 69.1241075,45.6775024 68.9064475,46.0103627 C68.0238265,45.41162 66.0828589,44.2263125 63.2472889,43.2399094 C61.0227643,42.4727069 58.2191445,41.8293123 54.9482546,41.6973859 L54.9482546,41.6973859 Z" id="Path" fill="#6A9BC3"></path>
            <path d="M13.4715026,26.2176166 C13.4715026,27.0772492 12.7747684,27.7720207 11.9170984,27.7720207 C11.0594285,27.7720207 10.3626943,27.0752865 10.3626943,26.2176166 C10.3626943,25.3599466 11.0574659,24.6632124 11.9170984,24.6632124 C12.7747684,24.6651751 13.4715026,25.3599466 13.4715026,26.2176166 L13.4715026,26.2176166 Z" id="Path" fill="#6A9BC3"></path>
            <path d="M38.3419689,8.80829016 C38.3419689,9.66596012 37.6471974,10.3626943 36.7875648,10.3626943 C35.9298948,10.3626943 35.2331606,9.66596012 35.2331606,8.80829016 C35.2331606,7.94865756 35.9298948,7.25388601 36.7875648,7.25388601 C37.6452347,7.25388601 38.3419689,7.95062019 38.3419689,8.80829016 L38.3419689,8.80829016 Z" id="Path" fill="#6A9BC3"></path>
            <path d="M26.3212435,56.6839378 C26.3212435,57.5435704 25.6245093,58.238342 24.7668394,58.238342 C23.9072068,58.238342 23.2124352,57.5416078 23.2124352,56.6839378 C23.2124352,55.8262679 23.9072068,55.1295337 24.7668394,55.1295337 C25.626472,55.1295337 26.3212435,55.8262679 26.3212435,56.6839378 L26.3212435,56.6839378 Z" id="Path" fill="#6A9BC3"></path>
            <path d="M65.492228,46.5284974 C65.492228,47.3861674 64.7974564,48.0829016 63.9378238,48.0829016 C63.0801539,48.0829016 62.3834197,47.3861674 62.3834197,46.5284974 C62.3834197,45.6708274 63.0801539,44.9740933 63.9378238,44.9740933 C64.7954938,44.9740933 65.492228,45.6688648 65.492228,46.5284974 L65.492228,46.5284974 Z" id="Path" fill="#6A9BC3"></path>
            <path d="M15.3367876,53.3668042 C15.3367876,53.7675358 15.0115396,54.0932642 14.611399,54.0932642 C14.2112583,54.0932642 13.8860104,53.7675358 13.8860104,53.3668042 C13.8860104,52.9660725 14.2091186,52.642487 14.611399,52.642487 C15.0136794,52.642487 15.3367876,52.9660725 15.3367876,53.3668042 L15.3367876,53.3668042 Z" id="Path" fill="#6A9BC3"></path>
            <path d="M58.8601036,24.7668394 C58.8601036,25.16698 58.5343752,25.492228 58.1357865,25.492228 C57.7350548,25.492228 57.4093264,25.16698 57.4093264,24.7668394 C57.4093264,24.3666988 57.7350548,24.0414508 58.1357865,24.0414508 C58.5365182,24.0435906 58.8601036,24.3666988 58.8601036,24.7668394 L58.8601036,24.7668394 Z" id="Path" fill="#6A9BC3"></path>
            <path d="M66.1139896,40.1036269 C66.1139896,40.5037676 65.7882612,40.8290155 65.3875296,40.8290155 C64.9867979,40.8290155 64.6632124,40.5037676 64.6632124,40.1036269 C64.6632124,39.7034863 64.9889408,39.3782383 65.3875296,39.3782383 C65.7904042,39.3782383 66.1139896,39.7034863 66.1139896,40.1036269 L66.1139896,40.1036269 Z" id="Path" fill="#6A9BC3"></path>
            <path d="M55.5440415,49.6191236 C52.9757716,53.4340229 49.2338949,56.3955894 44.8650227,58.0078864 C44.8971763,56.8353068 44.6238706,55.6727664 44.043096,54.5985711 C43.1749484,52.9983212 41.7280359,51.8016475 39.9595871,51.2535068 C38.193148,50.7154052 36.3282385,50.870009 34.7024714,51.7133025 C33.0666564,52.5586039 31.8709439,53.9821637 31.3323709,55.7269781 C31.0570555,56.6144442 30.9706427,57.5360435 31.0691132,58.4455959 C25.3517988,56.7670402 20.5890449,52.8417096 17.8238342,47.5349839 C18.1755143,47.3161291 18.5493001,47.0852273 18.9210762,46.8442863 C22.6750106,44.4549546 26.4389929,47.0751881 26.8549802,47.3823879 L26.8871339,47.4145133 C27.4478125,49.3340101 28.9168307,50.8137894 30.8480571,51.4161419 C31.4288317,51.592832 32.0216639,51.6892084 32.6144962,51.6892084 C35.1948236,51.6892084 37.4335189,50.0668723 38.2112344,47.6554544 C38.2212824,47.6333681 38.2333401,47.6112818 38.2333401,47.5891956 C38.4523865,46.886451 38.530761,46.1515809 38.4744921,45.4287579 C40.8458211,45.0773856 42.9518828,43.6959905 44.2139121,41.6580311 L45.2448373,42.1519602 C44.8388979,42.7001009 44.531429,43.3145005 44.3224305,43.9710648 C43.8280687,45.5612754 44.0049136,47.2498703 44.7946867,48.7196105 C45.5844598,50.1893506 46.902758,51.263546 48.5144578,51.7675142 C49.1293957,51.9542435 49.7764871,52.0526278 50.4135306,52.0526278 C51.4344078,52.0526278 52.4010258,51.8116868 53.3113749,51.3498832 C53.6409495,51.1852401 53.9484184,50.9884716 54.2458393,50.7696169 C54.2458393,50.7696169 54.2558873,50.7595777 54.2900505,50.7374914 C54.4769434,50.5949347 54.6517787,50.4423387 54.816566,50.2877349 C54.816566,50.2877349 54.826614,50.2756878 54.826614,50.2656486 C55.0396316,50.0909664 55.2807837,49.8721116 55.5440415,49.6191236 L55.5440415,49.6191236 Z" id="Path" fill="#6A9BC3"></path>
            <path d="M36.1085655,46.9029785 C35.5396658,48.7345973 33.5705515,49.742791 31.6995925,49.1623767 C30.431587,48.7687393 29.490098,47.7264036 29.2497178,46.4310153 C29.227683,46.3326059 29.2176671,46.2221465 29.2056481,46.1337789 C29.1836133,45.9369602 29.073439,45.7602251 28.9091792,45.651774 C28.7349036,45.5312727 28.3623143,45.2782201 27.8374843,44.9829921 C26.5915137,44.2921183 24.6203963,43.4586514 22.4229208,43.4586514 C20.9566017,43.4586514 19.3821116,43.8201552 17.8396721,44.8524491 C17.5672413,45.039226 17.2928072,45.2139528 17.0424112,45.3786378 C16.0468367,42.8340534 15.5440415,40.1569175 15.5440415,37.3934225 C15.5440415,35.2324336 15.8505262,33.1055868 16.4735115,31.0771493 C17.2827914,31.2518761 18.0700365,31.2518761 18.8793164,31.0771493 C20.8604497,30.6373198 22.3908701,29.1129791 23.3323592,27.9059584 C23.6388439,27.512321 23.9333096,27.0945834 24.2077436,26.6447121 C24.2738482,26.5342527 24.3179179,26.3916595 24.3058989,26.2611165 C24.295883,26.1506571 24.3058989,26.0321642 24.3279337,25.8996128 C24.3499686,25.7128359 24.3820193,25.526059 24.4361048,25.3392821 C24.8307289,24.067994 26.0125981,23.2124352 27.3687429,23.2124352 C27.6872467,23.2124352 28.0037472,23.256619 28.310232,23.3550284 C29.9528298,23.8591252 30.8822999,25.5822929 30.3895205,27.1709009 C30.1491403,27.9501422 29.6243103,28.5747403 28.8911507,28.9462858 C28.5626312,29.1109708 28.2020609,29.231472 27.8074368,29.2756558 C27.7313164,29.2856976 27.655196,29.2856976 27.5790756,29.2977477 C27.2826067,29.3077895 27.0322107,29.5066165 26.9560903,29.7797527 C26.9020048,29.9665296 26.8018464,30.3501252 26.7157101,30.8763139 C26.3992096,32.7742084 26.3651557,36.2948529 29.4941043,38.9157548 C29.6583641,39.7612718 29.942814,40.5505549 30.347454,41.2856125 C30.5437644,41.6370744 30.7520939,41.9664445 30.9704392,42.2496224 C32.2504637,43.9607399 34.1534734,45.101485 36.2527936,45.4208133 C36.2948601,45.9269184 36.2608063,46.4310153 36.1085655,46.9029785 L36.1085655,46.9029785 Z" id="Path" fill="#386890"></path>
            <path d="M45.879322,30.1234607 C45.440016,31.0590963 44.6075413,31.764856 43.5463868,32.0834561 C42.0017952,30.2545303 39.777182,29.2200883 37.3780501,29.2200883 C33.6429467,29.2200883 30.4755308,31.7406585 29.5447639,35.2331606 C28.8005516,33.7248514 28.832647,32.2266245 28.942975,31.4119762 C29.2719529,31.3131698 29.5888951,31.1800837 29.8958075,31.026833 C31.1896537,30.3553531 32.1424862,29.2200883 32.5697564,27.8226842 C33.4463623,24.9714152 31.8135082,21.9104347 28.9329451,21.0070623 C26.052382,20.1137722 22.9852644,21.7108055 22.0986286,24.5741733 C22.0003364,24.8726088 21.9341397,25.1791101 21.9020442,25.4896444 C21.5289351,26.1490256 20.2029934,28.2985678 18.2752628,28.7159743 C17.9362551,28.7925996 17.5751817,28.8046983 17.2020725,28.7603363 C20.6202338,20.6985445 28.6400745,15.3367876 37.380056,15.3367876 C39.997838,15.3367876 42.5393933,15.7884737 44.9605908,16.6918461 C44.4229927,17.296783 44.0197941,18.0247236 43.7770726,18.8171909 C43.6025538,19.3898645 43.5142914,19.9726203 43.5263272,20.5553761 C43.5263272,20.5775572 43.5263272,20.5997382 43.5263272,20.6219192 C43.5263272,20.6441002 43.5263272,20.6662812 43.5263272,20.6884622 C43.536357,21.1179674 43.592524,21.5474726 43.700846,21.9547967 L43.700846,21.964879 C44.0739551,23.737344 44.9044239,25.2900152 45.496183,26.292194 C46.0638706,27.2379119 46.5794031,28.6716122 45.879322,30.1234607 L45.879322,30.1234607 Z" id="Path" fill="#6A9BC3"></path>
            <path d="M59.2746114,37.4116425 C59.2746114,39.3670035 59.0110897,41.3002359 58.5061742,43.1690943 L54.4628268,43.1690943 C54.2214329,43.1690943 54.0122249,43.2897955 53.8794582,43.4990111 C53.7587613,43.7082267 53.7466916,43.9496293 53.8573305,44.1689033 C54.0001552,44.454563 54.110794,44.7402228 54.1872354,45.0379526 C54.2536188,45.3236124 54.2958627,45.6193305 54.2958627,45.9271188 C54.2958627,46.3012928 54.2415491,46.6734552 54.1309102,47.0476292 C53.8331911,48.0253096 53.153265,48.8279733 52.2399915,49.30072 C51.3066018,49.7835252 50.2404455,49.8720394 49.2306145,49.552181 C48.2187718,49.2443927 47.396021,48.5644421 46.9011636,47.6410772 C46.4063061,46.7277707 46.307737,45.6857162 46.6034445,44.7080358 C46.8126525,44.016015 47.2189988,43.4125085 47.7681699,42.9397618 C48.0316916,42.7204878 48.317341,42.5334008 48.6251182,42.3905709 C48.8665121,42.2799281 49.0193948,42.0505956 49.0193948,41.7749943 C49.0193948,41.5114631 48.8665121,41.2700606 48.6351763,41.1594177 L45.1631277,39.4997749 C45.3502079,38.8198243 45.4367074,38.1157334 45.4367074,37.4015841 C45.4367074,36.2911322 45.2073832,35.1927504 44.7668394,34.1708128 C46.1950865,33.5894349 47.3155564,32.5453687 47.9632966,31.1814441 C48.8645004,29.3025273 48.6874783,27.162091 47.4805089,25.1282742 C47.3919978,24.9854443 47.3155564,24.8426144 47.2270453,24.6997846 L47.2169872,24.6877145 C46.5571773,23.522947 46.1508309,22.4909509 45.9536926,21.535399 C45.9536926,21.5132704 45.9436345,21.503212 45.9436345,21.4810834 C45.8792628,21.1954237 45.8450654,20.8997055 45.8229376,20.6019756 C45.8229376,20.2620003 45.8671931,19.922025 45.9758204,19.5921082 C46.1950865,18.8779588 46.6456884,18.2523238 47.2612428,17.8238342 C49.3814857,18.9000874 51.3045902,20.328386 52.9842893,22.032286 C52.996359,22.0423444 53.0064171,22.0544146 53.0164751,22.0765431 C53.2799968,22.3501327 53.5334604,22.6156756 53.7527265,22.877195 C53.7627845,22.8993236 53.7748542,22.9093821 53.7849123,22.9214522 C54.718302,23.9755768 55.5430644,25.1182157 56.2451182,26.3272404 C56.2129324,26.3493689 56.1686768,26.3594274 56.1244213,26.3815559 C54.718302,27.1077754 53.6964012,28.3268585 53.2357412,29.8195311 C52.7750813,31.3142155 52.927964,32.9054609 53.6762851,34.2915141 C54.4225945,35.6755556 55.6637613,36.6874348 57.1805195,37.1581698 C57.8805618,37.3673854 58.5846272,37.453888 59.2746114,37.4116425 L59.2746114,37.4116425 Z" id="Path" fill="#386890"></path>
            <path d="M42.381896,58.848403 C39.9394762,59.4432895 36.9227251,59.7466816 33.5996638,59.1835224 C33.3014146,58.3288688 33.2913386,57.4186925 33.5674207,56.5422265 C33.9200803,55.4278058 34.7019771,54.5176295 35.7680167,53.9762828 C36.8360716,53.4349361 38.0572814,53.3159588 39.244233,53.6828055 C40.4110325,54.0397374 41.3682515,54.8091239 41.9405676,55.86009 C42.4604887,56.7920788 42.6136437,57.8430449 42.381896,58.848403 L42.381896,58.848403 Z" id="Path" fill="#386890"></path>
            <path d="M59.2746114,35.0210992 C58.8774072,35.0432709 58.4701216,34.9888495 58.0749336,34.8558194 C57.1615655,34.5696032 56.4115148,33.9629054 55.9618877,33.128444 C55.5223418,32.302045 55.4215286,31.3567251 55.6977569,30.4759047 C55.9739853,29.5950843 56.5788648,28.8694657 57.4156149,28.4381257 C57.4478751,28.4159541 57.4821516,28.405876 57.5144119,28.3937824 C58.2180884,30.0687521 58.9338626,32.302045 59.2746114,35.0210992 L59.2746114,35.0210992 Z" id="Path" fill="#6A9BC3"></path>
            <path d="M9.24407714,72.4857392 L9.24407714,72.2134102 C9.24407714,70.2808836 7.77813582,68.8082902 5.84968901,68.8082902 L3.39639902,68.8082902 C1.46594132,68.8082902 0,70.2788663 0,72.2134102 L0,76.5968972 C0,78.5294239 1.46594132,80 3.39639902,80 L5.84968901,80 C7.77612493,80 9.24407714,78.5294239 9.24407714,76.5968972 L9.24407714,76.306413 L7.01198542,76.306413 L7.01198542,76.5968972 C7.01198542,77.4421254 6.69426426,77.7628684 5.84968901,77.7628684 L3.39639902,77.7628684 C2.54981288,77.7628684 2.23209172,77.4421254 2.23209172,76.5968972 L2.23209172,72.2134102 C2.23209172,71.3661647 2.55182377,71.047439 3.39639902,71.047439 L5.84968901,71.047439 C6.69225336,71.047439 7.01198542,71.368182 7.01198542,72.2134102 L7.01198542,72.4857392 L9.24407714,72.4857392 Z M14.7237618,75.5237195 L14.7237618,72.2134102 C14.7237618,71.3661647 15.0434938,71.047439 15.8860582,71.047439 L18.3393482,71.047439 C19.1859343,71.047439 19.5036555,71.368182 19.5036555,72.2134102 L19.5036555,76.5968972 C19.5036555,77.4421254 19.1839234,77.7628684 18.3393482,77.7628684 L15.8860582,77.7628684 C15.0414829,77.7628684 14.7237618,77.4421254 14.7237618,76.5968972 L14.7237618,76.322551 L12.4936809,76.322551 L12.4936809,76.5968972 C12.4936809,78.5294239 13.9596222,80 15.8880691,80 L18.3413591,80 C20.2698059,80 21.7377581,78.5294239 21.7377581,76.5968972 L21.7377581,72.2134102 C21.7377581,70.2808836 20.2718168,68.8082902 18.3413591,68.8082902 L15.8860582,68.8082902 C13.9596222,68.8082902 12.49167,70.2788663 12.49167,72.2134102 L12.49167,75.5237195 L14.7237618,75.5237195 Z M27.2194536,80 L27.2194536,76.322551 L24.9893728,76.322551 L24.9893728,80 L27.2194536,80 Z M24.9873619,75.5237195 L27.2174427,75.5237195 L27.2174427,72.2134102 C27.2174427,71.3661647 27.5351639,71.047439 28.3797391,71.047439 L29.2404015,71.047439 C30.0869876,71.047439 30.4047088,71.368182 30.4047088,72.2134102 L30.4047088,80 L32.6347896,80 L32.6347896,72.2134102 C32.6347896,71.3661647 32.9545217,71.047439 33.797086,71.047439 L34.6577484,71.047439 C35.5043345,71.047439 35.8220557,71.368182 35.8220557,72.2134102 L35.8220557,80 L38.0521365,80 L38.0521365,72.2134102 C38.0521365,70.2808836 36.5861952,68.8082902 34.6557375,68.8082902 L33.7950751,68.8082902 C32.9022384,68.8082902 32.1059246,69.1290331 31.5167329,69.6555357 C30.9255302,69.1290331 30.1292164,68.8082902 29.2363797,68.8082902 L28.3757173,68.8082902 C26.4492814,68.8082902 24.9833401,70.2788663 24.9833401,72.2134102 L24.9833401,75.5237195 L24.9873619,75.5237195 Z M41.3057621,75.5237195 L47.1514293,75.5237195 C47.9980155,75.5237195 48.3157366,75.8444625 48.3157366,76.691708 C48.3157366,77.4744015 48.0120917,77.7608511 47.1514293,77.7608511 L43.5358429,77.7608511 L43.5358429,76.322551 L41.3057621,76.322551 L41.3057621,80 L47.1514293,80 C49.063789,80 50.5478284,78.5939759 50.5478284,76.6937252 C50.5478284,75.5741508 50.0531486,74.5978012 49.2568348,73.9906086 C49.5765668,73.480244 49.7515146,72.8710341 49.7515146,72.2154275 C49.7515146,70.2829008 48.2855732,68.8103074 46.3551155,68.8103074 L41.3057621,68.8103074 L41.3057621,75.5237195 L41.3057621,75.5237195 Z M43.5358429,73.2865879 L43.5358429,71.047439 L46.3551155,71.047439 C47.2017017,71.047439 47.5194228,71.368182 47.5194228,72.2134102 C47.5194228,72.998121 47.2157779,73.2865879 46.3551155,73.2865879 L43.5358429,73.2865879 L43.5358429,73.2865879 Z M63.0415093,80 L63.0415093,72.2134102 C63.0415093,70.2808836 61.575568,68.8082902 59.6451103,68.8082902 L57.1898094,68.8082902 C55.2633735,68.8082902 53.7974322,70.2788663 53.7974322,72.2134102 L53.7974322,80 L56.027513,80 L56.027513,72.2134102 C56.027513,71.3661647 56.347245,71.047439 57.1898094,71.047439 L59.6451103,71.047439 C60.4916964,71.047439 60.8094176,71.368182 60.8094176,72.2134102 L60.8094176,73.2865879 L56.8278486,73.2865879 L56.8278486,75.5237195 L60.8114285,75.5237195 L60.8114285,80 L63.0415093,80 L63.0415093,80 Z M69.9589827,71.8482878 L69.9589827,80 L72.1890635,80 L72.1890635,71.8482878 L69.9589827,71.8482878 Z M66.293124,71.047439 L75.8549223,71.047439 L75.8549223,68.8103074 L66.293124,68.8103074 L66.293124,71.047439 Z" id="Shape" fill="#386890"></path>
        </g>
        <rect id="Rectangle" x="0" y="0" width="80" height="80"></rect>
    </g>
</svg>